<svg version="1.1" viewBox="0.0 0.0 960.0 638.3989501312336" fill="none" stroke="none" stroke-linecap="square" stroke-miterlimit="10" xmlns:xlink="http://www.w3.org/1999/xlink" xmlns="http://www.w3.org/2000/svg"><clipPath id="p.0"><path d="m0 0l960.0 0l0 638.3989l-960.0 0l0 -638.3989z" clip-rule="nonzero"/></clipPath><g clip-path="url(#p.0)"><path fill="#000000" fill-opacity="0.0" d="m0 0l960.0 0l0 638.3989l-960.0 0z" fill-rule="evenodd"/><path fill="#333333" d="m164.22984 142.39607l0 0c0 -78.65136 63.807007 -142.41087 142.51692 -142.41087l0 0c37.79782 0 74.04758 15.00396 100.77469 41.711178c26.727081 26.707218 41.742218 62.92998 41.742218 100.69971l0 0c0 78.65135 -63.806976 142.41087 -142.5169 142.41087l0 0c-78.709915 0 -142.51692 -63.75952 -142.51692 -142.41087z" fill-rule="evenodd"/><path fill="#333333" d="m497.88577 186.32379l0 0c0 -47.761993 38.74759 -86.480736 86.545135 -86.480736l0 0c22.953186 0 44.96631 9.111336 61.196655 25.329628c16.230347 16.218277 25.34851 38.214996 25.34851 61.151108l0 0c0 47.761993 -38.74762 86.48074 -86.545166 86.48074l0 0c-47.797546 0 -86.545135 -38.71875 -86.545135 -86.48074z" fill-rule="evenodd"/><path fill="#333333" d="m276.18927 460.8827l0 0c0 -97.994415 79.49936 -177.4346 177.56674 -177.4346l0 0c47.093628 0 92.25845 18.69394 125.558685 51.96939c33.30017 33.27545 52.008057 78.40662 52.008057 125.46521l0 0c0 97.994446 -79.49933 177.43463 -177.56674 177.43463l0 0c-98.06738 0 -177.56674 -79.440186 -177.56674 -177.43463z" fill-rule="evenodd"/><path fill="#333333" d="m670.9761 420.60327l0 0c0 -51.511475 41.789368 -93.269775 93.33917 -93.269775l0 0c24.755127 0 48.496338 9.82663 66.00079 27.318085c17.504517 17.491486 27.33844 41.215027 27.33844 65.95169l0 0c0 51.511475 -41.789368 93.269775 -93.33923 93.269775l0 0c-51.549805 0 -93.33917 -41.7583 -93.33917 -93.269775z" fill-rule="evenodd"/><path fill="#333333" d="m618.814 320.02634l0 0c0 -20.20163 16.374634 -36.578247 36.57373 -36.578247l0 0c9.699951 0 19.002625 3.8537598 25.861572 10.713501c6.8588867 6.8597717 10.712158 16.163574 10.712158 25.864746l0 0c0 20.2016 -16.374573 36.578217 -36.57373 36.578217l0 0c-20.199097 0 -36.57373 -16.376617 -36.57373 -36.578217z" fill-rule="evenodd"/><path fill="#333333" d="m631.32275 581.20807l0 0c0 -31.555115 25.599548 -57.13562 57.178223 -57.13562l0 0c15.164612 0 29.708069 6.0195923 40.43109 16.73462c10.722961 10.715027 16.747131 25.24768 16.747131 40.401l0 0c0 31.555176 -25.59961 57.13568 -57.178223 57.13568l0 0c-31.578674 0 -57.178223 -25.580505 -57.178223 -57.13568z" fill-rule="evenodd"/><path fill="#333333" d="m818.0065 567.4344l0 0c0 -39.176697 31.782715 -70.93576 70.98859 -70.93576l0 0c18.827393 0 36.883606 7.473572 50.196533 20.776642c13.312927 13.30304 20.792114 31.345825 20.792114 50.15912l0 0c0 39.176758 -31.782715 70.93579 -70.98865 70.93579l0 0c-39.20587 0 -70.98859 -31.759033 -70.98859 -70.93579z" fill-rule="evenodd"/><path fill="#333333" d="m886.83624 438.53815l0 0c0 -20.2016 16.374573 -36.578247 36.57373 -36.578247l0 0c9.699951 0 19.002625 3.8537598 25.861511 10.713501c6.8588867 6.8597717 10.712219 16.163574 10.712219 25.864746l0 0c0 20.2016 -16.374634 36.578247 -36.57373 36.578247l0 0c-20.199158 0 -36.57373 -16.376648 -36.57373 -36.578247z" fill-rule="evenodd"/><path fill="#333333" d="m701.6817 154.42491l0 0c0 -71.25754 57.822876 -129.02318 129.151 -129.02318l0 0c34.25293 0 67.10303 13.593473 91.32355 37.79001c24.220459 24.19654 37.827454 57.01409 37.827454 91.23317l0 0c0 71.25752 -57.822876 129.02318 -129.151 129.02318l0 0c-71.328125 0 -129.151 -57.765656 -129.151 -129.02318z" fill-rule="evenodd"/><path fill="#333333" d="m857.6545 335.96255l0 0c0 -28.243713 22.913086 -51.13974 51.177856 -51.13974l0 0c13.573181 0 26.590454 5.387909 36.18817 14.978485c9.597717 9.590546 14.989624 22.598145 14.989624 36.161255l0 0c0 28.243683 -22.913086 51.13974 -51.177795 51.13974l0 0c-28.26477 0 -51.177856 -22.896057 -51.177856 -51.13974z" fill-rule="evenodd"/><path fill="#333333" d="m470.65128 44.58971l0 0c0 -24.634396 19.970764 -44.60452 44.605988 -44.60452l0 0c11.830261 0 23.175964 4.699391 31.541199 13.064362c8.365234 8.364969 13.064758 19.710304 13.064758 31.540157l0 0c0 24.634396 -19.970764 44.60452 -44.605957 44.60452l0 0c-24.635223 0 -44.605988 -19.970123 -44.605988 -44.60452z" fill-rule="evenodd"/><path fill="#333333" d="m610.7818 51.161953l0 0c0 -28.261225 22.913086 -51.171474 51.177795 -51.171474l0 0c13.573242 0 26.590515 5.3912644 36.188232 14.987777c9.597656 9.596512 14.989624 22.612179 14.989624 36.183697l0 0c0 28.261219 -22.913086 51.171474 -51.177856 51.171474l0 0c-28.26471 0 -51.177795 -22.910255 -51.177795 -51.171474z" fill-rule="evenodd"/><path fill="#333333" d="m0.0025750657 520.1333l0 0c0 -65.26535 52.94744 -118.1734 118.26141 -118.1734l0 0c31.364883 0 61.44513 12.450378 83.62344 34.612183c22.17833 22.161835 34.63797 52.219696 34.63797 83.56122l0 0c0 65.26538 -52.947433 118.17346 -118.26141 118.17346l0 0c-65.31398 0 -118.26141 -52.90808 -118.26141 -118.17346z" fill-rule="evenodd"/><path fill="#333333" d="m145.87949 338.69086l0 0c0 -31.555176 25.599564 -57.13568 57.178207 -57.13568l0 0c15.164597 0 29.7081 6.0196533 40.43109 16.73465c10.722992 10.715027 16.747116 25.247711 16.747116 40.40103l0 0c0 31.555145 -25.599564 57.13565 -57.178207 57.13565l0 0c-31.578644 0 -57.178207 -25.580505 -57.178207 -57.13565z" fill-rule="evenodd"/><path fill="#333333" d="m0.0025750657 201.86876l0 0c0 -39.176743 31.782679 -70.935776 70.988594 -70.935776l0 0c18.827347 0 36.883575 7.473572 50.196518 20.776611c13.31295 13.30304 20.792076 31.345825 20.792076 50.159164l0 0c0 39.176743 -31.782677 70.935776 -70.988594 70.935776l0 0c-39.205917 0 -70.988594 -31.759033 -70.988594 -70.935776z" fill-rule="evenodd"/><path fill="#333333" d="m42.44969 329.3582l0 0c0 -20.2016 16.374619 -36.578247 36.57373 -36.578247l0 0c9.699959 0 19.002632 3.8537598 25.861534 10.7135315c6.8589096 6.859741 10.712204 16.163574 10.712204 25.864716l0 0c0 20.2016 -16.374619 36.578247 -36.57374 36.578247l0 0c-20.199112 0 -36.57373 -16.376648 -36.57373 -36.578247z" fill-rule="evenodd"/><path fill="#333333" d="m0.013157743 390.87213l0 0c0 -13.771454 11.1580515 -24.935394 24.922205 -24.935394l0 0c6.6097794 0 12.948839 2.6271057 17.62266 7.303406c4.6738205 4.6763 7.2995453 11.018707 7.2995453 17.631989l0 0c0 13.771423 -11.158051 24.935364 -24.922205 24.935364l0 0c-13.764153 0 -24.922205 -11.16394 -24.922205 -24.935364z" fill-rule="evenodd"/><path fill="#333333" d="m0.013157743 51.156834l0 0c0 -28.261225 22.913094 -51.171474 51.177826 -51.171474l0 0c13.573208 0 26.590488 5.391265 36.18819 14.987777c9.597702 9.596513 14.989639 22.612179 14.989639 36.183697l0 0c0 28.261227 -22.913094 51.171474 -51.17783 51.171474l0 0c-28.264732 0 -51.177826 -22.910248 -51.177826 -51.171474z" fill-rule="evenodd"/><path fill="#333333" d="m115.59716 44.58962l0 0c0 -13.771435 11.158051 -24.935387 24.922203 -24.935387l0 0c6.6097717 0 12.948837 2.6271133 17.622665 7.303406c4.673813 4.6762905 7.2995453 11.018703 7.2995453 17.63198l0 0c0 13.771431 -11.158051 24.935383 -24.92221 24.935383l0 0c-13.764153 0 -24.922203 -11.163952 -24.922203 -24.935383z" fill-rule="evenodd"/><path fill="#333333" d="m910.1657 24.920485l0 0c0 -13.771434 11.158081 -24.935387 24.922241 -24.935387l0 0c6.609741 0 12.9487915 2.6271133 17.62262 7.303406c4.673828 4.6762915 7.2995605 11.018705 7.2995605 17.63198l0 0c0 13.771433 -11.15802 24.935385 -24.92218 24.935385l0 0c-13.76416 0 -24.922241 -11.163952 -24.922241 -24.935385z" fill-rule="evenodd"/></g></svg>